<svg width="21" height="20" viewBox="0 0 21 20" fill="none" xmlns="http://www.w3.org/2000/svg">
<path d="M4.41602 8.12508C4.41495 7.38415 4.56052 6.65028 4.84433 5.96584C5.12814 5.28137 5.54456 4.65984 6.06946 4.137C6.59451 3.61416 7.21783 3.20034 7.90341 2.91939C8.58914 2.63847 9.32355 2.49596 10.0645 2.50008C13.1582 2.52354 15.6347 5.09384 15.6347 8.19538V8.75008C15.6347 11.547 16.2207 13.172 16.7363 14.0626C16.791 14.1574 16.82 14.265 16.82 14.3745C16.8202 14.4841 16.7915 14.5917 16.7369 14.6866C16.6823 14.7816 16.6037 14.8605 16.5091 14.9155C16.4143 14.9706 16.3067 14.9997 16.1973 15.0001H3.85358C3.74402 14.9997 3.63644 14.9706 3.54184 14.9155C3.44708 14.8605 3.3685 14.7816 3.31387 14.6866C3.25925 14.5917 3.23056 14.4841 3.23071 14.3745C3.23087 14.265 3.2597 14.1574 3.31448 14.0626C3.83008 13.172 4.41602 11.547 4.41602 8.75008V8.12508Z" fill="black" fill-opacity="0.1"/>
<path fill-rule="evenodd" clip-rule="evenodd" d="M3.79101 8.75007V8.12507C3.79101 8.12507 3.78926 6.87864 4.26697 5.72645C4.26697 5.72645 4.74468 4.57425 5.62849 3.69411C5.62849 3.69411 6.5123 2.81397 7.66647 2.34105C7.66647 2.34105 8.82064 1.86814 10.0679 1.87508C10.0679 1.87508 11.3362 1.88468 12.4911 2.39135C12.4911 2.39135 13.6022 2.87881 14.4576 3.75745C14.4576 3.75745 15.3096 4.63266 15.7769 5.76121C15.7769 5.76121 16.2598 6.92735 16.2598 8.19538V8.75007C16.2598 8.75007 16.2598 11.992 17.2772 13.7494C17.2772 13.7494 17.4448 14.0396 17.4451 14.374C17.4451 14.374 17.4454 14.7083 17.2787 14.9982C17.2787 14.9982 17.112 15.288 16.8229 15.4559C16.8229 15.4559 16.5338 15.6239 16.1995 15.6251L3.85351 15.6251C3.85351 15.6251 3.51696 15.6239 3.22785 15.4559C3.22785 15.4559 2.93874 15.288 2.77208 14.9982C2.77208 14.9982 2.60542 14.7083 2.60571 14.374C2.60571 14.374 2.60601 14.0396 2.77319 13.7501C2.77319 13.7501 3.79101 11.992 3.79101 8.75007ZM5.04101 8.75007C5.04101 8.75007 5.04101 12.3277 3.85571 14.3751L16.1951 14.3751C16.1951 14.3751 15.0098 12.3272 15.0098 8.75007V8.19538C15.0098 8.19538 15.0098 6.11659 13.5619 4.6294C13.5619 4.6294 12.1125 3.1406 10.061 3.12506C10.061 3.12506 9.06346 3.11951 8.14041 3.49772C8.14041 3.49772 7.21736 3.87593 6.51053 4.57982C6.51053 4.57982 5.80371 5.28372 5.42166 6.20519C5.42166 6.20519 5.03961 7.12666 5.04101 8.12507V8.75007Z" fill="#1C1C1C"/>
<path d="M13.1504 15.625V15C13.1504 14.6548 12.8706 14.375 12.5254 14.375C12.1802 14.375 11.9004 14.6548 11.9004 15V15.625C11.9004 16.4016 11.3512 16.9508 11.3512 16.9508C10.802 17.5 10.0254 17.5 10.0254 17.5C9.24874 17.5 8.69957 16.9508 8.69957 16.9508C8.15039 16.4016 8.15039 15.625 8.15039 15.625V15C8.15039 14.6548 7.87057 14.375 7.52539 14.375C7.18021 14.375 6.90039 14.6548 6.90039 15L6.90039 15.625C6.90039 16.9194 7.81568 17.8347 7.81568 17.8347C8.73097 18.75 10.0254 18.75 10.0254 18.75C11.3198 18.75 12.2351 17.8347 12.2351 17.8347C13.1504 16.9194 13.1504 15.625 13.1504 15.625Z" fill="#1C1C1C"/>
</svg>
