<svg width="28" height="29" viewBox="0 0 28 29" fill="none" xmlns="http://www.w3.org/2000/svg">
<path d="M4.375 10.4321H23.625V6.05713C23.625 5.82503 23.5327 5.60254 23.3687 5.43837C23.2046 5.27431 22.982 5.18213 22.75 5.18213H5.25C5.01801 5.18213 4.79541 5.27431 4.63135 5.43837C4.46729 5.60254 4.375 5.82503 4.375 6.05713V10.4321Z" fill="#DFDFD7"/>
<path fill-rule="evenodd" clip-rule="evenodd" d="M3.5 6.05713C3.5 6.05713 3.5 5.33226 4.01256 4.81969C4.01256 4.81969 4.52513 4.30713 5.25 4.30713H22.75C22.75 4.30713 23.4749 4.30713 23.9874 4.81969C23.9874 4.81969 24.5 5.33225 24.5 6.05713V23.5571C24.5 23.5571 24.5 24.282 23.9874 24.7946C23.9874 24.7946 23.4749 25.3071 22.75 25.3071H5.25C5.25 25.3071 4.52512 25.3071 4.01256 24.7946C4.01256 24.7946 3.5 24.282 3.5 23.5571V6.05713ZM5.25 6.05713V23.5571H22.75V6.05713H5.25Z" fill="#384D6C"/>
<path d="M18.375 3.43213V6.93213C18.375 7.41538 18.7668 7.80713 19.25 7.80713C19.7332 7.80713 20.125 7.41538 20.125 6.93213V3.43213C20.125 2.94888 19.7332 2.55713 19.25 2.55713C18.7668 2.55713 18.375 2.94888 18.375 3.43213Z" fill="#384D6C"/>
<path d="M7.875 3.43213V6.93213C7.875 7.41538 8.26675 7.80713 8.75 7.80713C9.23325 7.80713 9.625 7.41538 9.625 6.93213V3.43213C9.625 2.94888 9.23325 2.55713 8.75 2.55713C8.26675 2.55713 7.875 2.94888 7.875 3.43213Z" fill="#384D6C"/>
<path d="M4.375 11.3071H23.625C24.1082 11.3071 24.5 10.9154 24.5 10.4321C24.5 9.94888 24.1082 9.55713 23.625 9.55713H4.375C3.89175 9.55713 3.5 9.94888 3.5 10.4321C3.5 10.9154 3.89175 11.3071 4.375 11.3071Z" fill="#384D6C"/>
<path d="M17.0625 16.5571H10.9375C10.4543 16.5571 10.0625 16.9489 10.0625 17.4321C10.0625 17.9154 10.4543 18.3071 10.9375 18.3071H17.0625C17.5457 18.3071 17.9375 17.9154 17.9375 17.4321C17.9375 16.9489 17.5457 16.5571 17.0625 16.5571Z" fill="#384D6C"/>
<path d="M13.125 14.3696V20.4946C13.125 20.9779 13.5168 21.3696 14 21.3696C14.4832 21.3696 14.875 20.9779 14.875 20.4946V14.3696C14.875 13.8864 14.4832 13.4946 14 13.4946C13.5168 13.4946 13.125 13.8864 13.125 14.3696Z" fill="#384D6C"/>
</svg>
