<svg width="28" height="29" viewBox="0 0 28 29" fill="none" xmlns="http://www.w3.org/2000/svg">
<path d="M4.8125 5.61963V22.2446L6.5625 23.9946H23.1875V5.61963H4.8125Z" fill="#DFDFD7"/>
<path d="M22.3125 23.1196H14.8313C14.348 23.1196 13.9563 23.5114 13.9563 23.9946C13.9563 24.4779 14.348 24.8696 14.8313 24.8696H22.3125C23.0374 24.8696 23.5499 24.3571 23.5499 24.3571C24.0625 23.8445 24.0625 23.1196 24.0625 23.1196V6.49463C24.0625 5.76976 23.5499 5.25719 23.5499 5.25719C23.0374 4.74463 22.3125 4.74463 22.3125 4.74463H5.6875C4.96263 4.74463 4.45006 5.25719 4.45006 5.25719C3.9375 5.76976 3.9375 6.49463 3.9375 6.49463V16.4806C3.9375 16.9638 4.32925 17.3556 4.8125 17.3556C5.29575 17.3556 5.6875 16.9638 5.6875 16.4806V6.49463H22.3125V23.1196Z" fill="#384D6C"/>
<path d="M14.6184 18.0512L14.6187 18.0508C14.7828 17.8868 14.875 17.6642 14.875 17.4321C14.875 17.2001 14.7828 16.9775 14.6187 16.8134L14.6182 16.8129L14.6112 16.8059L14.6107 16.8055C14.4473 16.6462 14.2281 16.5571 14 16.5571C13.9738 16.5571 13.9475 16.5583 13.9214 16.5607C13.7173 16.5791 13.5262 16.6685 13.3813 16.8134L13.381 16.8137L7 23.1947L4.11872 20.3134C3.95462 20.1493 3.73206 20.0571 3.5 20.0571C3.26794 20.0571 3.04538 20.1493 2.88128 20.3134C2.71719 20.4775 2.625 20.7001 2.625 20.9321C2.625 21.1642 2.71719 21.3868 2.88128 21.5508L2.88161 21.5512L6.38128 25.0508C6.72299 25.3926 7.27701 25.3926 7.61872 25.0508L14.6184 18.0512Z" fill="#384D6C"/>
</svg>
