<svg width="28" height="29" viewBox="0 0 28 29" fill="none" xmlns="http://www.w3.org/2000/svg">
<path d="M23.625 14.8071C23.625 20.1228 19.3158 24.4321 14 24.4321C8.6842 24.4321 4.375 20.1228 4.375 14.8071C4.375 9.49144 8.6842 5.18213 14 5.18213C19.3158 5.18213 23.625 9.49144 23.625 14.8071Z" fill="#DFDFD7"/>
<path d="M13.125 9.55713V14.8071C13.125 15.2904 13.5168 15.6821 14 15.6821C14.4832 15.6821 14.875 15.2904 14.875 14.8071V9.55713C14.875 9.07388 14.4832 8.68213 14 8.68213C13.5168 8.68213 13.125 9.07388 13.125 9.55713Z" fill="#384D6C"/>
<path d="M14.4374 14.0493L18.9873 16.6742C19.2431 16.8218 19.4072 17.0885 19.4236 17.3834C19.4245 17.3996 19.425 17.4159 19.425 17.4321C19.425 17.5856 19.3846 17.7364 19.3079 17.8694C19.1603 18.1252 18.8936 18.2893 18.5988 18.3058C18.5825 18.3067 18.5663 18.3071 18.55 18.3071C18.3965 18.3071 18.2457 18.2667 18.1127 18.19L13.5629 15.5651C13.3661 15.4516 13.2212 15.2662 13.1588 15.0479L13.1549 15.0339C13.135 14.9599 13.125 14.8837 13.125 14.8071C13.125 14.6673 13.1585 14.5295 13.2228 14.4052C13.2289 14.3933 13.2354 14.3815 13.2421 14.3699C13.3555 14.1732 13.541 14.0284 13.7592 13.9659L13.7733 13.962C13.8472 13.9422 13.9234 13.9321 14 13.9321C14.1398 13.9321 14.2777 13.9656 14.4019 14.0299C14.4138 14.0361 14.4256 14.0425 14.4374 14.0493Z" fill="#384D6C"/>
<path d="M25.3969 11.7118V7.33679C25.3969 6.85354 25.0051 6.46179 24.5219 6.46179C24.0386 6.46179 23.6469 6.85354 23.6469 7.33679V10.8368H20.1469C19.6636 10.8368 19.2719 11.2285 19.2719 11.7118C19.2719 12.195 19.6636 12.5868 20.1469 12.5868H24.5219C25.0051 12.5868 25.3969 12.195 25.3969 11.7118Z" fill="#384D6C"/>
<path d="M23.9034 12.3308L23.9041 12.3315C24.0681 12.495 24.2903 12.5868 24.5219 12.5868L24.5232 12.5868C24.7552 12.5865 24.9777 12.494 25.1415 12.3296C25.305 12.1656 25.3969 11.9435 25.3969 11.7118L25.3969 11.7105C25.3965 11.4785 25.304 11.2561 25.1397 11.0922L25.1394 11.0919L21.4209 7.3844C19.1704 5.13199 16.0461 4.50953 16.0461 4.50953C12.9217 3.88707 9.97825 5.1056 9.97825 5.1056C7.03478 6.32412 5.26461 8.97277 5.26461 8.97277C3.49445 11.6214 3.49445 14.8072 3.49445 14.8072C3.49445 17.9929 5.26461 20.6415 5.26461 20.6415C7.03477 23.2902 9.97825 24.5087 9.97825 24.5087C12.9217 25.7272 16.046 25.1048 16.046 25.1048C19.1701 24.4824 21.4217 22.2291 21.4217 22.2291L21.4221 22.2287C21.586 22.0647 21.6781 21.8422 21.6781 21.6103V21.6099C21.678 21.3779 21.5858 21.1553 21.4216 20.9913C21.2575 20.8274 21.0351 20.7353 20.8031 20.7353H20.8028C20.5707 20.7354 20.3482 20.8277 20.1842 20.9918C18.3077 22.8698 15.7041 23.3885 15.7041 23.3885C13.1005 23.9072 10.6476 22.8918 10.6476 22.8918C8.19472 21.8763 6.71958 19.6691 6.71958 19.6691C5.24445 17.4619 5.24445 14.8072 5.24445 14.8072C5.24445 12.1524 6.71958 9.94517 6.71958 9.94517C8.19472 7.73796 10.6476 6.72252 10.6476 6.72252C13.1005 5.70709 15.7041 6.2258 15.7041 6.2258C18.3077 6.74452 20.1853 8.62366 20.1853 8.62366L23.9034 12.3308Z" fill="#384D6C"/>
</svg>
