<svg width="42" height="42" viewBox="0 0 42 42" fill="none" xmlns="http://www.w3.org/2000/svg">
<circle cx="21" cy="21" r="21" fill="#D0D0D0"/>
<path d="M18.7823 9.50426H23.2177C23.7426 9.50426 24.1681 9.92978 24.1681 10.4547V12.6724H17.8319V10.4547C17.8319 9.92978 18.2574 9.50426 18.7823 9.50426ZM15.9311 10.4547V12.6724H13.7134C11.4388 12.6724 9.59485 14.5163 9.59485 16.7909V18.6918C9.59485 19.9165 10.5877 20.9094 11.8125 20.9094H18.4655V20.2758C18.4655 19.5759 19.0329 19.0086 19.7328 19.0086H22.2673C22.9672 19.0086 23.5345 19.5759 23.5345 20.2758V20.9094H30.1875C31.4123 20.9094 32.4052 19.9165 32.4052 18.6918V16.7909C32.4052 14.5163 30.5612 12.6724 28.2867 12.6724H26.069V10.4547C26.069 8.87996 24.7924 7.60339 23.2177 7.60339H18.7823C17.2076 7.60339 15.9311 8.87996 15.9311 10.4547ZM32.4052 22.1629C31.7651 22.5727 31.004 22.8103 30.1875 22.8103H23.5345C23.5345 23.5102 22.9672 24.0775 22.2673 24.0775H19.7328C19.0329 24.0775 18.4655 23.5102 18.4655 22.8103H11.8125C10.996 22.8103 10.235 22.5727 9.59485 22.1629V26.2952C9.59485 28.5698 11.4388 30.4137 13.7134 30.4137H28.2867C30.5612 30.4137 32.4052 28.5698 32.4052 26.2952V22.1629Z" fill="#384D6C"/>
</svg>
