<svg width="34" height="34" viewBox="0 0 34 34" fill="none" xmlns="http://www.w3.org/2000/svg">
<g clip-path="url(#clip0_5_5821)">
<path d="M17.279 12.4113C19.8697 9.89114 24.0211 9.94845 26.5412 12.5391C29.0494 15.1175 29.0879 19.1997 26.4851 21.7316C23.8944 24.2517 19.7429 24.1944 17.2228 21.6037C16.8531 21.2236 16.5423 20.7952 16.2876 20.35C15.7911 20.7991 15.0243 20.7777 14.5537 20.294L13.3334 19.0396L12.079 20.2598C11.5841 20.7412 10.7928 20.7303 10.3114 20.2354L9.0912 18.981L8.1952 19.8526C7.50242 20.5265 6.39449 20.5112 5.72057 19.8184L3.97737 18.0264C3.30345 17.3337 3.31875 16.2257 4.01153 15.5518L5.56814 14.0376C6.0909 13.5291 6.79432 13.249 7.52358 13.2591L16.3415 13.3808C16.4185 13.3819 16.5044 13.3438 16.5647 13.2602C16.769 12.9774 17.0015 12.6812 17.279 12.4113ZM24.9107 17.9619C25.4055 17.4805 25.4164 16.6891 24.9351 16.1943C24.4537 15.6994 23.6623 15.6885 23.1675 16.1699C22.6726 16.6513 22.6617 17.4426 23.1431 17.9375C23.6244 18.4323 24.4158 18.4433 24.9107 17.9619Z" fill="#ABB1BB"/>
</g>
<defs>
<clipPath id="clip0_5_5821">
<rect width="24" height="24" fill="white" transform="translate(17.2032) rotate(45.7909)"/>
</clipPath>
</defs>
</svg>
