<svg width="34" height="34" viewBox="0 0 34 34" fill="none" xmlns="http://www.w3.org/2000/svg">
<g clip-path="url(#clip0_5_5823)">
<path d="M17.281 12.4113C19.8717 9.89114 24.0231 9.94845 26.5432 12.5391C29.0514 15.1175 29.0898 19.1997 26.487 21.7316C23.8964 24.2517 19.7449 24.1944 17.2248 21.6037C16.855 21.2236 16.5443 20.7952 16.2895 20.35C15.7931 20.7991 15.0262 20.7777 14.5556 20.294L13.3354 19.0396L12.081 20.2598C11.5861 20.7412 10.7948 20.7303 10.3134 20.2354L9.09316 18.981L8.19716 19.8526C7.50437 20.5265 6.39644 20.5112 5.72252 19.8184L3.97932 18.0264C3.3054 17.3337 3.3207 16.2257 4.01349 15.5518L5.57009 14.0376C6.09285 13.5291 6.79628 13.249 7.52553 13.2591L16.3434 13.3808C16.4205 13.3819 16.5063 13.3438 16.5667 13.2602C16.7709 12.9774 17.0034 12.6812 17.281 12.4113ZM24.9126 17.9619C25.4075 17.4805 25.4183 16.6891 24.937 16.1943C24.4556 15.6994 23.6643 15.6885 23.1694 16.1699C22.6746 16.6513 22.6636 17.4426 23.145 17.9375C23.6263 18.4323 24.4178 18.4433 24.9126 17.9619Z" fill="#ABB1BB"/>
</g>
<defs>
<clipPath id="clip0_5_5823">
<rect width="24" height="24" fill="white" transform="translate(17.2052) rotate(45.7909)"/>
</clipPath>
</defs>
</svg>
