<svg width="18" height="21" viewBox="0 0 18 21" fill="none" xmlns="http://www.w3.org/2000/svg">
<g clip-path="url(#clip0_3_5565)">
<path d="M8.5488 18.9661H3.75313C2.44984 18.9661 1.39237 17.8575 1.39237 16.5001V4.42696C1.39237 3.06557 2.45374 1.96097 3.75313 1.96097H8.62684C8.9195 1.96097 9.15362 1.71641 9.15362 1.41071C9.15362 1.105 8.9195 0.860443 8.62684 0.860443H3.75313C1.86842 0.860443 0.338806 2.46232 0.338806 4.42696V16.5001C0.338806 18.4689 1.87233 20.0667 3.75313 20.0667H8.5488C8.84145 20.0667 9.07558 19.8221 9.07558 19.5164C9.07558 19.2107 8.83755 18.9661 8.5488 18.9661Z" fill="#384D6C"/>
<path d="M17.2271 10.0763L13.8791 6.57911C13.6723 6.36308 13.3406 6.36308 13.1338 6.57911C12.927 6.79513 12.927 7.1416 13.1338 7.35763L15.5843 9.91737H4.89647C4.60382 9.91737 4.36969 10.1619 4.36969 10.4676C4.36969 10.7733 4.60382 11.0179 4.89647 11.0179H15.5843L13.1338 13.5776C12.927 13.7937 12.927 14.1401 13.1338 14.3562C13.2352 14.4621 13.3718 14.5192 13.5045 14.5192C13.6371 14.5192 13.7737 14.4662 13.8752 14.3562L17.2232 10.8589C17.4339 10.6388 17.4339 10.2883 17.2271 10.0763Z" fill="#384D6C"/>
</g>
<defs>
<clipPath id="clip0_3_5565">
<rect width="17.5792" height="19.2372" fill="white" transform="translate(0.330322 0.860443)"/>
</clipPath>
</defs>
</svg>
