<svg width="28" height="28" viewBox="0 0 28 28" fill="none" xmlns="http://www.w3.org/2000/svg">
<path d="M18.375 2.33337C19.8247 2.33337 21 3.50863 21 4.95837V23.0417C21 24.4914 19.8247 25.6667 18.375 25.6667H9.625C8.17525 25.6667 7 24.4914 7 23.0417V4.95837C7 3.50863 8.17525 2.33337 9.625 2.33337H18.375ZM15.4583 21H12.5417C12.0584 21 11.6667 21.3918 11.6667 21.875C11.6667 22.3583 12.0584 22.75 12.5417 22.75H15.4583C15.9416 22.75 16.3333 22.3583 16.3333 21.875C16.3333 21.3918 15.9416 21 15.4583 21Z" fill="#ABB1BB"/>
</svg>
