<svg width="16" height="16" viewBox="0 0 16 16" fill="none" xmlns="http://www.w3.org/2000/svg">
<path d="M14.35 14.3563C14.2566 14.4483 14.131 14.4999 14 14.5001C13.8672 14.4995 13.7397 14.4481 13.6437 14.3563L10.9437 11.6501C9.80659 12.6052 8.34462 13.0845 6.86273 12.9879C5.38083 12.8913 3.99343 12.2264 2.98988 11.1317C1.98633 10.0371 1.44412 8.59729 1.47633 7.1126C1.50855 5.62791 2.11269 4.21298 3.16277 3.1629C4.21286 2.11282 5.62779 1.50867 7.11248 1.47645C8.59717 1.44424 10.037 1.98645 11.1316 2.99C12.2263 3.99355 12.8912 5.38095 12.9878 6.86285C13.0844 8.34474 12.6051 9.80671 11.65 10.9438L14.35 13.6438C14.3972 13.6904 14.4347 13.7458 14.4603 13.807C14.486 13.8681 14.4991 13.9338 14.4991 14.0001C14.4991 14.0664 14.486 14.132 14.4603 14.1932C14.4347 14.2544 14.3972 14.3098 14.35 14.3563ZM7.24997 12.0001C8.18944 12.0001 9.1078 11.7215 9.88893 11.1996C10.6701 10.6776 11.2789 9.93579 11.6384 9.06784C11.9979 8.19989 12.092 7.24483 11.9087 6.32342C11.7254 5.40201 11.273 4.55564 10.6087 3.89134C9.94443 3.22704 9.09806 2.77465 8.17665 2.59137C7.25524 2.40809 6.30018 2.50215 5.43223 2.86167C4.56428 3.22119 3.82243 3.83001 3.30049 4.61114C2.77856 5.39227 2.49997 6.31064 2.49997 7.2501C2.50163 8.50937 3.0026 9.71659 3.89304 10.607C4.78348 11.4975 5.9907 11.9984 7.24997 12.0001Z" fill="black" fill-opacity="0.2"/>
</svg>
