<svg width="28" height="29" viewBox="0 0 28 29" fill="none" xmlns="http://www.w3.org/2000/svg">
<path d="M4.375 23.3086C4.1429 23.3086 3.92041 23.2164 3.75624 23.0524C3.59218 22.8882 3.5 22.6657 3.5 22.4336V6.68359C3.5 6.45149 3.59218 6.229 3.75624 6.06483C3.92041 5.90077 4.1429 5.80859 4.375 5.80859H9.625V23.3086H4.375Z" fill="#DFDFD7"/>
<path d="M8.75 5.80859V23.3086C8.75 23.7918 9.14175 24.1836 9.625 24.1836C10.1082 24.1836 10.5 23.7918 10.5 23.3086V5.80859C10.5 5.32534 10.1082 4.93359 9.625 4.93359C9.14175 4.93359 8.75 5.32534 8.75 5.80859Z" fill="#384D6C"/>
<path fill-rule="evenodd" clip-rule="evenodd" d="M2.625 6.68359C2.625 6.68359 2.625 5.95872 3.13756 5.44616C3.13756 5.44616 3.65013 4.93359 4.375 4.93359H23.625C23.625 4.93359 24.3499 4.93359 24.8624 5.44616C24.8624 5.44616 25.375 5.95872 25.375 6.68359V22.4336C25.375 22.4336 25.375 23.1585 24.8624 23.671C24.8624 23.671 24.3499 24.1836 23.625 24.1836H4.375C4.375 24.1836 3.65012 24.1836 3.13756 23.671C3.13756 23.671 2.625 23.1585 2.625 22.4336V6.68359ZM4.375 6.68359V22.4336H23.625V6.68359H4.375Z" fill="#384D6C"/>
<path d="M3.5 10.1836H6.125C6.60825 10.1836 7 9.79184 7 9.30859C7 8.82534 6.60825 8.43359 6.125 8.43359H3.5C3.01675 8.43359 2.625 8.82534 2.625 9.30859C2.625 9.79184 3.01675 10.1836 3.5 10.1836Z" fill="#384D6C"/>
<path d="M3.5 13.6836H6.125C6.60825 13.6836 7 13.2918 7 12.8086C7 12.3253 6.60825 11.9336 6.125 11.9336H3.5C3.01675 11.9336 2.625 12.3253 2.625 12.8086C2.625 13.2918 3.01675 13.6836 3.5 13.6836Z" fill="#384D6C"/>
<path d="M3.5 17.1836H6.125C6.60825 17.1836 7 16.7918 7 16.3086C7 15.8253 6.60825 15.4336 6.125 15.4336H3.5C3.01675 15.4336 2.625 15.8253 2.625 16.3086C2.625 16.7918 3.01675 17.1836 3.5 17.1836Z" fill="#384D6C"/>
</svg>
