<svg width="7" height="13" viewBox="0 0 7 13" fill="none" xmlns="http://www.w3.org/2000/svg">
<g clip-path="url(#clip0_3_5650)">
<mask id="path-1-inside-1_3_5650" fill="white">
<path d="M4.88756 6.93652L0.256281 11.4733C-0.0854273 11.808 -0.0854273 12.3507 0.256281 12.6855C0.59799 13.0202 1.15201 13.0202 1.49372 12.6855L6.74372 7.54261C7.08543 7.20788 7.08543 6.66517 6.74372 6.33043L1.49372 1.18757C1.15201 0.852839 0.59799 0.852839 0.256281 1.18757C-0.0854273 1.52231 -0.0854273 2.06502 0.256281 2.39976L4.88756 6.93652Z"/>
</mask>
<path d="M4.88756 6.93652L0.256281 11.4733C-0.0854273 11.808 -0.0854273 12.3507 0.256281 12.6855C0.59799 13.0202 1.15201 13.0202 1.49372 12.6855L6.74372 7.54261C7.08543 7.20788 7.08543 6.66517 6.74372 6.33043L1.49372 1.18757C1.15201 0.852839 0.59799 0.852839 0.256281 1.18757C-0.0854273 1.52231 -0.0854273 2.06502 0.256281 2.39976L4.88756 6.93652Z" fill="#384D6C"/>
<path d="M4.88756 6.93652L12.5851 14.7945L20.6068 6.93652L12.5851 -0.921421L4.88756 6.93652ZM0.256281 11.4733L-7.4413 3.61535L0.256281 11.4733ZM1.49372 12.6855L9.1913 20.5434H9.1913L1.49372 12.6855ZM6.74372 7.54261L-0.95386 -0.31533L6.74372 7.54261ZM6.74372 6.33043L-0.95386 14.1884L-0.95386 14.1884L6.74372 6.33043ZM1.49372 1.18757L9.1913 -6.67037H9.1913L1.49372 1.18757ZM0.256281 2.39976L7.95386 -5.45819H7.95386L0.256281 2.39976ZM-2.81001 -0.921421L-7.4413 3.61534L7.95386 19.3312L12.5851 14.7945L-2.81001 -0.921421ZM-7.4413 3.61535C-12.1862 8.26345 -12.1862 15.8953 -7.4413 20.5434L7.95386 4.82753C12.0154 8.80616 12.0154 15.3526 7.95386 19.3312L-7.4413 3.61535ZM-7.4413 20.5434C-2.8229 25.0676 4.5729 25.0676 9.1913 20.5434L-6.20386 4.82753C-2.26888 0.972856 4.01888 0.972856 7.95386 4.82753L-7.4413 20.5434ZM9.1913 20.5434L14.4413 15.4006L-0.95386 -0.31533L-6.20386 4.82753L9.1913 20.5434ZM14.4413 15.4006C19.1862 10.7525 19.1862 3.12059 14.4413 -1.52751L-0.95386 14.1884C-5.01538 10.2097 -5.01538 3.6633 -0.95386 -0.31533L14.4413 15.4006ZM14.4413 -1.52751L9.1913 -6.67037L-6.20386 9.04552L-0.95386 14.1884L14.4413 -1.52751ZM9.1913 -6.67037C4.5729 -11.1945 -2.8229 -11.1945 -7.4413 -6.67037L7.95386 9.04552C4.01888 12.9002 -2.26888 12.9002 -6.20386 9.04552L9.1913 -6.67037ZM-7.4413 -6.67037C-12.1862 -2.02227 -12.1862 5.6096 -7.4413 10.2577L7.95386 -5.45819C12.0154 -1.47956 12.0154 5.06689 7.95386 9.04552L-7.4413 -6.67037ZM-7.4413 10.2577L-2.81001 14.7945L12.5851 -0.921421L7.95386 -5.45819L-7.4413 10.2577Z" fill="#384D6C" mask="url(#path-1-inside-1_3_5650)"/>
</g>
<defs>
<clipPath id="clip0_3_5650">
<rect width="7" height="12" fill="white" transform="translate(0 0.936523)"/>
</clipPath>
</defs>
</svg>
