<svg width="21" height="20" viewBox="0 0 21 20" fill="none" xmlns="http://www.w3.org/2000/svg">
<path d="M14.7129 10C14.7129 12.5888 12.6142 14.6875 10.0254 14.6875C7.43658 14.6875 5.33789 12.5888 5.33789 10C5.33789 7.41119 7.43658 5.3125 10.0254 5.3125C12.6142 5.3125 14.7129 7.41119 14.7129 10Z" fill="black" fill-opacity="0.1"/>
<path fill-rule="evenodd" clip-rule="evenodd" d="M10.0254 4.6875C10.0254 4.6875 11.1058 4.6875 12.0934 5.10524C12.0934 5.10524 13.0469 5.50853 13.7819 6.2435C13.7819 6.2435 14.5169 6.97846 14.9202 7.93194C14.9202 7.93194 15.3379 8.91959 15.3379 10C15.3379 10 15.3379 11.0804 14.9202 12.0681C14.9202 12.0681 14.5169 13.0215 13.7819 13.7565C13.7819 13.7565 13.0469 14.4915 12.0934 14.8948C12.0934 14.8948 11.1058 15.3125 10.0254 15.3125C10.0254 15.3125 8.94498 15.3125 7.95733 14.8948C7.95733 14.8948 7.00385 14.4915 6.26889 13.7565C6.26889 13.7565 5.53392 13.0215 5.13063 12.0681C5.13063 12.0681 4.71289 11.0804 4.71289 10C4.71289 10 4.71289 8.91959 5.13063 7.93194C5.13063 7.93194 5.53392 6.97846 6.26889 6.2435C6.26889 6.2435 7.00385 5.50853 7.95733 5.10524C7.95733 5.10524 8.94498 4.6875 10.0254 4.6875ZM10.0254 5.9375C10.0254 5.9375 8.34265 5.9375 7.15277 7.12738C7.15277 7.12738 5.96289 8.31726 5.96289 10C5.96289 10 5.96289 11.6827 7.15277 12.8726C7.15277 12.8726 8.34265 14.0625 10.0254 14.0625C10.0254 14.0625 11.7081 14.0625 12.898 12.8726C12.898 12.8726 14.0879 11.6827 14.0879 10C14.0879 10 14.0879 8.31726 12.898 7.12738C12.898 7.12738 11.7081 5.9375 10.0254 5.9375Z" fill="#1C1C1C"/>
<path d="M10.6504 2.8125V1.25C10.6504 0.904822 10.3706 0.625 10.0254 0.625C9.68021 0.625 9.40039 0.904822 9.40039 1.25V2.8125C9.40039 3.15768 9.68021 3.4375 10.0254 3.4375C10.3706 3.4375 10.6504 3.15768 10.6504 2.8125Z" fill="#1C1C1C"/>
<path d="M4.27983 3.37056C4.16262 3.25335 4.00365 3.1875 3.83789 3.1875C3.67213 3.1875 3.51316 3.25335 3.39595 3.37056C3.27874 3.48777 3.21289 3.64674 3.21289 3.8125C3.21289 3.97826 3.27874 4.13723 3.39595 4.25444L4.49751 5.356C4.61472 5.47321 4.77369 5.53906 4.93945 5.53906C5.10521 5.53906 5.26418 5.47321 5.38139 5.356C5.49861 5.23879 5.56445 5.07982 5.56445 4.91406C5.56445 4.7483 5.49861 4.58933 5.38139 4.47212L4.27983 3.37056Z" fill="#1C1C1C"/>
<path d="M2.83789 9.375H1.27539C0.930213 9.375 0.650391 9.65482 0.650391 10C0.650391 10.3452 0.930213 10.625 1.27539 10.625H2.83789C3.18307 10.625 3.46289 10.3452 3.46289 10C3.46289 9.65482 3.18307 9.375 2.83789 9.375Z" fill="#1C1C1C"/>
<path d="M3.39595 15.7456C3.27874 15.8628 3.21289 16.0217 3.21289 16.1875C3.21289 16.1983 3.21317 16.2091 3.21373 16.2198C3.22173 16.3742 3.28665 16.5201 3.39595 16.6294C3.51316 16.7467 3.67213 16.8125 3.83789 16.8125C4.00365 16.8125 4.16262 16.7467 4.27983 16.6294L5.38139 15.5279C5.49861 15.4107 5.56445 15.2517 5.56445 15.0859C5.56445 14.9202 5.49861 14.7612 5.3814 14.644C5.26418 14.5268 5.10521 14.4609 4.93945 14.4609C4.92867 14.4609 4.91789 14.4612 4.90711 14.4618C4.75274 14.4698 4.60681 14.5347 4.49751 14.644L3.39595 15.7456Z" fill="#1C1C1C"/>
<path d="M9.40039 17.1875V18.75C9.40039 19.0952 9.68021 19.375 10.0254 19.375C10.3706 19.375 10.6504 19.0952 10.6504 18.75V17.1875C10.6504 16.8423 10.3706 16.5625 10.0254 16.5625C9.68021 16.5625 9.40039 16.8423 9.40039 17.1875Z" fill="#1C1C1C"/>
<path d="M14.6695 15.528L15.7709 16.6294C15.8882 16.7467 16.0471 16.8125 16.2129 16.8125C16.3787 16.8125 16.5376 16.7467 16.6548 16.6294C16.772 16.5122 16.8379 16.3533 16.8379 16.1875C16.8379 16.0217 16.772 15.8628 16.6548 15.7456L15.5533 14.6441C15.4361 14.5268 15.2771 14.4609 15.1113 14.4609C14.9456 14.4609 14.7866 14.5268 14.6694 14.644C14.5522 14.7612 14.4863 14.9202 14.4863 15.0859C14.4863 15.2517 14.5522 15.4107 14.6695 15.528Z" fill="#1C1C1C"/>
<path d="M17.2129 10.625H18.7754C19.1206 10.625 19.4004 10.3452 19.4004 10C19.4004 9.65482 19.1206 9.375 18.7754 9.375H17.2129C16.8677 9.375 16.5879 9.65482 16.5879 10C16.5879 10.3452 16.8677 10.625 17.2129 10.625Z" fill="#1C1C1C"/>
<path d="M16.6548 4.25444C16.772 4.13723 16.8379 3.97826 16.8379 3.8125C16.8379 3.64674 16.772 3.48777 16.6548 3.37056C16.5376 3.25335 16.3787 3.1875 16.2129 3.1875C16.0471 3.1875 15.8882 3.25335 15.7709 3.37056L14.6695 4.47205C14.5522 4.58933 14.4863 4.7483 14.4863 4.91406C14.4863 5.07982 14.5522 5.23879 14.6694 5.356C14.7866 5.47321 14.9456 5.53906 15.1113 5.53906C15.2771 5.53906 15.4361 5.47321 15.5533 5.356L16.6548 4.25444Z" fill="#1C1C1C"/>
</svg>
