<svg width="28" height="29" viewBox="0 0 28 29" fill="none" xmlns="http://www.w3.org/2000/svg">
<path d="M18.375 16.1196C18.375 18.5359 16.4163 20.4946 14 20.4946C11.5837 20.4946 9.625 18.5359 9.625 16.1196C9.625 13.7033 11.5837 11.7446 14 11.7446C16.4163 11.7446 18.375 13.7033 18.375 16.1196Z" fill="#DFDFD7"/>
<path d="M10.0625 9.99463C10.0625 11.9277 8.49557 13.4946 6.5625 13.4946C4.62943 13.4946 3.0625 11.9277 3.0625 9.99463C3.0625 8.06155 4.62943 6.49463 6.5625 6.49463C8.49557 6.49463 10.0625 8.06155 10.0625 9.99463Z" fill="#DFDFD7"/>
<path d="M24.9375 9.99463C24.9375 11.9277 23.3706 13.4946 21.4375 13.4946C19.5044 13.4946 17.9375 11.9277 17.9375 9.99463C17.9375 8.06155 19.5044 6.49463 21.4375 6.49463C23.3706 6.49463 24.9375 8.06155 24.9375 9.99463Z" fill="#DFDFD7"/>
<path fill-rule="evenodd" clip-rule="evenodd" d="M14 10.8696C14 10.8696 16.1746 10.8696 17.7123 12.4073C17.7123 12.4073 19.25 13.945 19.25 16.1196C19.25 16.1196 19.25 18.2942 17.7123 19.8319C17.7123 19.8319 16.1746 21.3696 14 21.3696C14 21.3696 11.8254 21.3696 10.2877 19.8319C10.2877 19.8319 8.75 18.2943 8.75 16.1196C8.75 16.1196 8.75 13.945 10.2877 12.4073C10.2877 12.4073 11.8254 10.8696 14 10.8696ZM14 12.6196C14 12.6196 12.5503 12.6196 11.5251 13.6448C11.5251 13.6448 10.5 14.6699 10.5 16.1196C10.5 16.1196 10.5 17.5694 11.5251 18.5945C11.5251 18.5945 12.5503 19.6196 14 19.6196C14 19.6196 15.4497 19.6196 16.4749 18.5945C16.4749 18.5945 17.5 17.5694 17.5 16.1196C17.5 16.1196 17.5 14.6699 16.4749 13.6448C16.4749 13.6448 15.4497 12.6196 14 12.6196Z" fill="#384D6C"/>
<path d="M25.9863 16.6431L25.9866 16.6435C26.1255 16.8294 26.3326 16.9524 26.5623 16.9856C26.6038 16.9916 26.6456 16.9946 26.6875 16.9946L26.689 16.9946C26.8773 16.9943 27.0605 16.9332 27.2113 16.8205C27.4323 16.6553 27.5625 16.3956 27.5625 16.1196L27.5624 16.1096C27.5603 15.9242 27.4994 15.7443 27.3884 15.5958L27.3876 15.5948C26.3359 14.1881 24.7648 13.4025 24.7648 13.4025C23.1932 12.6167 21.436 12.6196 21.436 12.6196L21.4375 12.6196C21.9207 12.6196 22.3125 13.0114 22.3125 13.4946C22.3125 13.9771 21.9219 14.3686 21.4394 14.3696L25.9863 16.6431Z" fill="#384D6C"/>
<path d="M4.01781 14.9678C5.21856 14.3674 6.56104 14.3696 6.56104 14.3696L6.56226 14.3696H6.5625C6.57603 14.3696 6.58956 14.3693 6.60307 14.3687C6.82036 14.3586 7.02611 14.2679 7.18018 14.1144C7.34455 13.9506 7.43711 13.7282 7.4375 13.4961L7.4375 13.4949V13.4946C7.4375 13.4417 7.4327 13.3889 7.42316 13.3369C7.34709 12.9219 6.98581 12.6203 6.56396 12.6196L6.5625 12.6196C4.80617 12.617 3.23519 13.4025 3.23519 13.4025C1.66411 14.1881 0.612369 15.5948 0.612369 15.5948L0.611736 15.5957C0.498582 15.7471 0.4375 15.9308 0.4375 16.1196L0.437548 16.1288C0.437955 16.1676 0.440946 16.2064 0.446502 16.2448C0.479705 16.4745 0.602787 16.6816 0.788672 16.8205C0.93992 16.9336 1.12368 16.9946 1.3125 16.9946C1.3242 16.9946 1.3359 16.9944 1.34759 16.9939C1.61098 16.9834 1.85557 16.8546 2.01338 16.6435C2.81707 15.5681 4.01781 14.9678 4.01781 14.9678Z" fill="#384D6C"/>
<path d="M17.2504 22.3041C18.7413 23.2352 19.513 24.8145 19.513 24.8145L19.5135 24.8155L19.5137 24.8161C19.6605 25.1166 19.9656 25.3071 20.3 25.3071L20.324 25.3068C20.4489 25.3034 20.5716 25.2732 20.6839 25.2184C20.9844 25.0717 21.175 24.7665 21.175 24.4321L21.1747 24.4082C21.1713 24.2833 21.1411 24.1605 21.0863 24.0482L21.0859 24.0475C20.0942 22.0169 18.1774 20.8198 18.1774 20.8198C16.2603 19.6224 14 19.6224 14 19.6224C11.7397 19.6224 9.82261 20.8198 9.82261 20.8198C7.90583 22.0169 6.91408 24.0475 6.91408 24.0475L6.91378 24.0481C6.85536 24.1678 6.82501 24.2991 6.82501 24.4321L6.82509 24.4435C6.8263 24.5365 6.84232 24.6287 6.87255 24.7166C6.94801 24.9361 7.10755 25.1166 7.31608 25.2184C7.43565 25.2768 7.56695 25.3071 7.70001 25.3071L7.7201 25.3069C8.04717 25.2994 8.34273 25.11 8.48628 24.8161C9.25796 23.2357 10.7496 22.3041 10.7496 22.3041C12.2413 21.3724 14 21.3724 14 21.3724C15.7587 21.3724 17.2504 22.3041 17.2504 22.3041Z" fill="#384D6C"/>
<path d="M8.47209 8.19721C8.99439 8.75314 9.13741 9.5024 9.13741 9.5024C9.18093 9.73035 9.31321 9.93168 9.50516 10.0621C9.65021 10.1606 9.82153 10.2133 9.99689 10.2133L10.0026 10.2133C10.0557 10.213 10.1087 10.2078 10.161 10.1978C10.5735 10.1191 10.8719 9.75833 10.8719 9.33834L10.8719 9.33341C10.8716 9.28001 10.8664 9.22674 10.8564 9.17428C10.618 7.92551 9.74751 6.99896 9.74751 6.99896C8.87701 6.07241 7.64553 5.75667 7.64553 5.75667C6.41404 5.44093 5.20512 5.83434 5.20512 5.83434C3.9962 6.22775 3.18639 7.20778 3.18639 7.20778C2.37658 8.18781 2.2181 9.44921 2.2181 9.44921C2.05961 10.7106 2.60183 11.8605 2.60183 11.8605C3.14404 13.0104 4.21806 13.6906 4.21806 13.6906C5.29171 14.3706 6.56252 14.3696 6.56252 14.3696L6.56341 14.3696C6.79547 14.3694 7.01794 14.2769 7.18187 14.1127C7.34558 13.9486 7.43752 13.7263 7.43752 13.4946V13.4937C7.43703 13.0108 7.04542 12.6196 6.56252 12.6196L6.56163 12.6196C5.79884 12.6204 5.15443 12.2122 5.15443 12.2122C4.51001 11.8041 4.18468 11.1141 4.18468 11.1141C3.85936 10.4242 3.95445 9.66736 3.95445 9.66736C4.04953 8.91052 4.53542 8.3225 4.53542 8.3225C5.02131 7.73449 5.74666 7.49844 5.74666 7.49844C6.47201 7.26239 7.2109 7.45184 7.2109 7.45184C7.9498 7.64128 8.47209 8.19721 8.47209 8.19721Z" fill="#384D6C"/>
<path d="M22.8456 12.2122C22.2012 12.6204 21.4384 12.6196 21.4384 12.6196L21.4375 12.6196C21.4238 12.6196 21.41 12.6199 21.3963 12.6206L20.5635 13.5357C20.5737 13.753 20.6645 13.9587 20.8181 14.1127C20.9821 14.2769 21.2045 14.3694 21.4366 14.3696L21.4375 14.3696C22.7083 14.3706 23.7819 13.6906 23.7819 13.6906C24.856 13.0104 25.3982 11.8605 25.3982 11.8605C25.9404 10.7106 25.7819 9.44921 25.7819 9.44921C25.6234 8.18781 24.8136 7.20778 24.8136 7.20778C24.0038 6.22775 22.7949 5.83434 22.7949 5.83434C21.586 5.44093 20.3545 5.75667 20.3545 5.75667C19.123 6.07241 18.2525 6.99896 18.2525 6.99896C17.382 7.92551 17.1436 9.17428 17.1436 9.17428C17.1333 9.22836 17.1281 9.28329 17.1281 9.33834C17.1281 9.36464 17.1293 9.39092 17.1317 9.41711C17.1668 9.80604 17.4555 10.1246 17.839 10.1978C17.8931 10.2081 17.9481 10.2133 18.0031 10.2133C18.0294 10.2133 18.0557 10.2122 18.0819 10.2098C18.4708 10.1746 18.7894 9.886 18.8626 9.5024C19.0056 8.75314 19.5279 8.19721 19.5279 8.19721C20.0502 7.64128 20.7891 7.45184 20.7891 7.45184C21.528 7.26239 22.2533 7.49844 22.2533 7.49844C22.9787 7.73449 23.4646 8.3225 23.4646 8.3225C23.9505 8.91052 24.0456 9.66736 24.0456 9.66736C24.1406 10.4242 23.8153 11.1141 23.8153 11.1141C23.49 11.8041 22.8456 12.2122 22.8456 12.2122Z" fill="#384D6C"/>
</svg>
